# xmcd CD database file
# Copyright (C) 1993-1998 Ti Kan
#
# Track frame offsets:
#	150
#	16720
#	33635
#	53075
#	72522
#	92265
#	111125
#	135720
#	158697
#	177982
#	218962
#	234262
#	289985
#
# Disc length: 4147 seconds
#
# Revision: 1
# Processed by: cddbd v1.4b41PL1 Copyright (c) Steve Scherf et al.
# Submitted via: DiscPlay 3.4.1
#
DISCID=ae10310d
DTITLE=Joe Ely - Live At Liberty Lunch
DYEAR=1900
DGENRE=
TTITLE0=Me and Billy The Kid
TTITLE1=Are You Listenin' Lucky?
TTITLE2=GrandFather Blues
TTITLE3=BBQ and Foam
TTITLE4=Row Of Dominoes
TTITLE5=Dallas
TTITLE6=Where Is My Love?
TTITLE7=She Gotta Get The Gettin'
TTITLE8=Drivin To The Poorhouse In A Limousine
TTITLE9=Cool Rockin' Loretta
TTITLE10=Musta Notta Gotta Lotta
TTITLE11=Letter To L.A.
TTITLE12=If You Were A BlueBird
EXTD=
EXTT0=
EXTT1=
EXTT2=
EXTT3=
EXTT4=
EXTT5=
EXTT6=
EXTT7=
EXTT8=
EXTT9=
EXTT10=
EXTT11=
EXTT12=
PLAYORDER=
